<?xml version="1.0" standalone="no"?>
<!DOCTYPE svg PUBLIC "-//W3C//DTD SVG 20010904//EN"
 "http://www.w3.org/TR/2001/REC-SVG-20010904/DTD/svg10.dtd">
<svg version="1.0" xmlns="http://www.w3.org/2000/svg"
 width="1024.000000pt" height="1024.000000pt" viewBox="0 0 1024.000000 1024.000000"
 preserveAspectRatio="xMidYMid meet">
<metadata>
Created by potrace 1.11, written by Peter Selinger 2001-2013
</metadata>
<g transform="translate(0.000000,1024.000000) scale(0.100000,-0.100000)"
fill="#000000" stroke="none">
<path d="M4855 10233 c-481 -29 -918 -112 -1345 -254 -1847 -613 -3184 -2214
-3459 -4144 -37 -257 -46 -395 -46 -715 0 -320 9 -458 46 -715 240 -1680 1286
-3126 2804 -3875 901 -444 1900 -613 2896 -490 888 111 1753 462 2459 1001
207 158 312 250 521 458 434 434 729 848 995 1396 199 410 323 781 415 1240
21 105 35 193 31 196 -4 3 -59 16 -122 29 -213 43 -367 109 -521 225 -326 244
-506 641 -485 1066 l7 136 -203 6 c-184 4 -214 7 -318 34 -484 126 -853 468
-1019 946 -61 174 -75 270 -75 497 0 190 2 214 28 325 35 151 88 287 171 439
35 66 64 120 62 121 -59 38 -218 165 -264 212 -205 211 -316 533 -283 823 16
147 45 242 120 399 l69 144 -157 69 c-568 249 -1144 389 -1752 428 -150 9
-451 11 -575 3z m580 -383 c452 -33 862 -120 1291 -272 l111 -39 -23 -83 c-36
-138 -47 -249 -41 -423 3 -87 13 -192 22 -233 56 -254 180 -494 348 -675 71
-76 74 -82 62 -105 -27 -52 -84 -232 -109 -341 -29 -131 -46 -282 -46 -409 0
-87 16 -279 26 -312 4 -12 -2 -19 -18 -22 -13 -2 -79 -14 -148 -25 -466 -80
-958 -373 -1203 -716 -63 -88 -140 -250 -161 -337 -49 -200 -18 -402 79 -515
42 -49 132 -98 216 -117 80 -18 205 -25 202 -11 -1 6 -15 44 -30 85 -26 71
-27 84 -27 250 0 195 19 311 74 462 73 200 212 378 383 491 147 98 358 171
562 196 132 16 132 16 140 -21 4 -17 23 -69 41 -116 19 -47 33 -86 32 -88 -2
-1 -138 -21 -302 -43 -164 -22 -301 -43 -303 -45 -4 -3 -662 -3068 -663 -3083
0 -2 159 -3 353 -3 l352 0 143 673 c79 369 146 679 148 688 4 13 25 17 112 22
512 29 955 308 1177 740 l42 82 99 -28 c54 -15 142 -35 195 -44 l97 -16 12
-76 c39 -254 122 -465 268 -686 84 -128 280 -326 409 -413 92 -62 247 -144
334 -177 l47 -17 -35 -131 c-456 -1724 -1829 -3044 -3563 -3426 -779 -171
-1591 -143 -2355 81 -2017 591 -3405 2445 -3405 4548 0 1766 982 3387 2545
4201 574 299 1203 478 1850 528 160 12 498 12 660 1z m2014 -3745 c63 -83 203
-227 279 -287 39 -31 62 -57 62 -70 0 -11 -14 -61 -31 -111 -111 -333 -321
-599 -559 -711 -69 -32 -194 -66 -204 -55 -2 2 65 328 150 724 84 396 154 722
154 724 0 2 23 -32 51 -75 29 -44 72 -106 98 -139z"/>
<path d="M3962 9370 c-266 -70 -482 -296 -536 -562 -100 -485 314 -847 929
-814 381 20 673 158 772 365 35 74 44 209 18 297 -87 298 -458 622 -822 715
-101 25 -261 25 -361 -1z"/>
<path d="M6245 8626 c-130 -32 -262 -135 -317 -247 -63 -129 -59 -251 12 -395
109 -222 430 -414 691 -414 103 0 161 18 218 67 137 117 144 372 18 637 -95
199 -212 307 -380 352 -63 17 -174 17 -242 0z"/>
<path d="M2264 8156 c-70 -17 -192 -76 -256 -124 -102 -75 -158 -152 -184
-252 -33 -130 7 -261 111 -359 79 -75 130 -96 235 -96 76 0 93 3 152 33 167
82 298 318 298 538 0 124 -42 205 -130 249 -45 23 -159 29 -226 11z"/>
<path d="M3915 7111 c-86 -40 -125 -110 -125 -224 0 -196 126 -419 278 -494
51 -25 68 -28 157 -28 90 0 105 3 153 28 232 122 264 372 72 557 -69 66 -201
139 -296 164 -84 22 -188 20 -239 -3z"/>
<path d="M1278 6911 c-125 -40 -223 -130 -288 -265 -57 -118 -74 -219 -67
-386 12 -283 112 -507 266 -598 41 -24 56 -27 141 -27 90 0 100 2 170 37 141
70 287 230 375 412 59 121 79 200 78 311 -1 154 -58 282 -175 390 -137 127
-338 178 -500 126z"/>
<path d="M3265 6914 c-497 -74 -989 -375 -1242 -761 -133 -203 -184 -408 -150
-598 34 -186 130 -289 308 -329 80 -18 205 -25 201 -11 -1 6 -14 44 -29 85
-26 70 -27 85 -28 245 0 141 4 188 23 273 70 312 228 537 489 694 72 44 243
121 251 114 3 -3 -745 -2306 -949 -2922 l-60 -182 -62 -6 c-177 -20 -361 -127
-498 -290 -322 -382 -357 -780 -81 -920 94 -48 157 -60 297 -60 275 2 548 105
707 268 67 68 138 202 157 294 37 178 -9 364 -126 515 l-45 58 305 987 306
987 1 -1027 0 -1028 334 0 334 0 170 423 c93 232 295 733 448 1114 153 381
279 691 280 690 2 -2 -289 -1388 -462 -2200 l-6 -27 354 2 353 3 377 1765
c207 971 377 1775 378 1788 l0 22 -381 -2 -381 -3 -529 -1390 -528 -1390 -1
1392 0 1391 -72 18 c-71 17 -369 29 -443 18z"/>
<path d="M8420 4769 c-272 -36 -613 -229 -766 -432 -106 -142 -148 -263 -148
-437 -1 -200 60 -347 204 -490 136 -137 268 -194 440 -193 267 2 515 186 669
498 182 366 198 740 41 919 -96 109 -260 160 -440 135z"/>
<path d="M7223 2695 c-160 -43 -295 -172 -339 -320 -12 -44 -15 -81 -11 -143
12 -193 154 -371 396 -496 48 -25 129 -57 180 -72 79 -22 106 -26 189 -22 74
3 107 9 138 26 58 30 103 78 133 142 24 51 26 65 25 185 0 114 -3 140 -28 215
-85 258 -234 428 -425 484 -66 19 -187 20 -258 1z"/>
<path d="M5020 1918 c-88 -31 -148 -68 -220 -135 -163 -150 -283 -410 -310
-668 -41 -396 214 -595 600 -466 293 99 527 299 605 521 8 22 19 78 25 123 32
243 -101 487 -326 599 -85 42 -90 43 -198 46 -94 2 -121 -1 -176 -20z"/>
<path d="M7858 9456 c-148 -53 -237 -171 -246 -326 -8 -139 57 -249 181 -306
124 -57 313 -31 477 66 74 43 164 133 185 185 64 152 -70 314 -313 376 -87 22
-228 25 -284 5z"/>
<path d="M9018 8977 c-300 -105 -388 -409 -207 -714 47 -79 199 -231 287 -288
121 -77 182 -99 287 -99 74 -1 97 3 131 21 77 41 135 122 170 238 28 89 25
320 -5 430 -53 196 -141 314 -288 387 -81 40 -88 42 -196 45 -97 3 -121 1
-179 -20z"/>
<path d="M8232 7605 c-259 -72 -422 -315 -385 -572 36 -249 236 -406 498 -390
263 16 577 212 683 426 32 65 37 84 37 145 -1 92 -27 150 -100 221 -63 62
-175 121 -295 156 -99 28 -357 37 -438 14z"/>
<path d="M9443 5988 c-86 -14 -152 -73 -172 -154 -37 -146 37 -362 169 -495
87 -88 149 -113 271 -107 109 5 177 36 248 113 64 71 85 132 79 229 -6 82 -34
146 -97 217 -111 126 -353 222 -498 197z"/>
</g>
</svg>
